<svg width="19" height="17" viewBox="0 0 19 17" fill="none" xmlns="http://www.w3.org/2000/svg">
<g clip-path="url(#clip0)">
<path d="M17.2348 14.734H1.68692C0.828231 14.734 0.132141 14.038 0.132141 13.1793V3.85056C0.132141 2.99187 0.828231 2.29578 1.68692 2.29578H17.2348C18.0935 2.29578 18.7895 2.99187 18.7895 3.85056V13.1793C18.7895 14.038 18.0935 14.734 17.2348 14.734ZM4.27823 6.05317V4.75752C4.27823 4.54286 4.10419 4.36882 3.88953 4.36882H2.59388C2.37922 4.36882 2.20519 4.54286 2.20519 4.75752V6.05317C2.20519 6.26783 2.37922 6.44186 2.59388 6.44186H3.88953C4.10419 6.44186 4.27823 6.26783 4.27823 6.05317ZM7.3878 6.05317V4.75752C7.3878 4.54286 7.21376 4.36882 6.9991 4.36882H5.70345C5.48879 4.36882 5.31475 4.54286 5.31475 4.75752V6.05317C5.31475 6.26783 5.48879 6.44186 5.70345 6.44186H6.9991C7.21376 6.44186 7.3878 6.26783 7.3878 6.05317ZM10.4974 6.05317V4.75752C10.4974 4.54286 10.3233 4.36882 10.1087 4.36882H8.81301C8.59836 4.36882 8.42432 4.54286 8.42432 4.75752V6.05317C8.42432 6.26783 8.59836 6.44186 8.81301 6.44186H10.1087C10.3233 6.44186 10.4974 6.26783 10.4974 6.05317ZM13.6069 6.05317V4.75752C13.6069 4.54286 13.4329 4.36882 13.2182 4.36882H11.9226C11.7079 4.36882 11.5339 4.54286 11.5339 4.75752V6.05317C11.5339 6.26783 11.7079 6.44186 11.9226 6.44186H13.2182C13.4329 6.44186 13.6069 6.26783 13.6069 6.05317ZM16.7165 6.05317V4.75752C16.7165 4.54286 16.5425 4.36882 16.3278 4.36882H15.0321C14.8175 4.36882 14.6435 4.54286 14.6435 4.75752V6.05317C14.6435 6.26783 14.8175 6.44186 15.0321 6.44186H16.3278C16.5425 6.44186 16.7165 6.26783 16.7165 6.05317ZM5.83301 9.16273V7.86708C5.83301 7.65243 5.65897 7.47839 5.44432 7.47839H4.14866C3.93401 7.47839 3.75997 7.65243 3.75997 7.86708V9.16273C3.75997 9.37739 3.93401 9.55143 4.14866 9.55143H5.44432C5.65897 9.55143 5.83301 9.37739 5.83301 9.16273ZM8.94258 9.16273V7.86708C8.94258 7.65243 8.76854 7.47839 8.55388 7.47839H7.25823C7.04357 7.47839 6.86953 7.65243 6.86953 7.86708V9.16273C6.86953 9.37739 7.04357 9.55143 7.25823 9.55143H8.55388C8.76854 9.55143 8.94258 9.37739 8.94258 9.16273ZM12.0521 9.16273V7.86708C12.0521 7.65243 11.8781 7.47839 11.6635 7.47839H10.3678C10.1531 7.47839 9.9791 7.65243 9.9791 7.86708V9.16273C9.9791 9.37739 10.1531 9.55143 10.3678 9.55143H11.6635C11.8781 9.55143 12.0521 9.37739 12.0521 9.16273ZM15.1617 9.16273V7.86708C15.1617 7.65243 14.9877 7.47839 14.773 7.47839H13.4774C13.2627 7.47839 13.0887 7.65243 13.0887 7.86708V9.16273C13.0887 9.37739 13.2627 9.55143 13.4774 9.55143H14.773C14.9877 9.55143 15.1617 9.37739 15.1617 9.16273ZM4.27823 12.2723V10.9766C4.27823 10.762 4.10419 10.588 3.88953 10.588H2.59388C2.37922 10.588 2.20519 10.762 2.20519 10.9766V12.2723C2.20519 12.487 2.37922 12.661 2.59388 12.661H3.88953C4.10419 12.661 4.27823 12.487 4.27823 12.2723ZM13.6069 12.2723V10.9766C13.6069 10.762 13.4329 10.588 13.2182 10.588H5.70345C5.48879 10.588 5.31475 10.762 5.31475 10.9766V12.2723C5.31475 12.487 5.48879 12.661 5.70345 12.661H13.2182C13.4329 12.661 13.6069 12.487 13.6069 12.2723ZM16.7165 12.2723V10.9766C16.7165 10.762 16.5425 10.588 16.3278 10.588H15.0321C14.8175 10.588 14.6435 10.762 14.6435 10.9766V12.2723C14.6435 12.487 14.8175 12.661 15.0321 12.661H16.3278C16.5425 12.661 16.7165 12.487 16.7165 12.2723Z" fill="#C4C4C4"/>
</g>
<defs>
<clipPath id="clip0">
<rect x="0.132141" y="0.222717" width="18.6574" height="16.5844" rx="8.29218" fill="white"/>
</clipPath>
</defs>
</svg>
