<svg width="22" height="17" viewBox="0 0 22 17" fill="none" xmlns="http://www.w3.org/2000/svg">
<g clip-path="url(#clip0)">
<path d="M20.7974 11.5037L17.536 14.765C17.2324 15.0686 16.7402 15.0686 16.4366 14.765L13.1752 11.5037C12.8716 11.2001 12.8716 10.7078 13.1752 10.4043L13.5258 10.0537C13.8355 9.74398 14.3399 9.75117 14.6407 10.0696L15.9498 11.4557V5.55669H9.87483C9.66865 5.55668 9.47092 5.47478 9.32512 5.32901L8.80686 4.81075C8.31713 4.32099 8.66398 3.48364 9.35657 3.48364H17.2454C17.6748 3.48364 18.0228 3.83169 18.0228 4.26103V11.4557L19.332 10.0696C19.6327 9.7512 20.1371 9.74398 20.4468 10.0537L20.7974 10.4043C21.101 10.7078 21.101 11.2001 20.7974 11.5037ZM12.2092 12.0035C12.137 11.9313 12.0513 11.874 11.957 11.835C11.8627 11.7959 11.7616 11.7758 11.6595 11.7758H5.58457V5.87674L6.8937 7.26283C7.19448 7.58127 7.69881 7.5885 8.00857 7.27874L8.35911 6.9282C8.66271 6.6246 8.66271 6.13238 8.35911 5.82881L5.09776 2.56749C4.79415 2.26388 4.30194 2.26388 3.99836 2.56749L0.73698 5.82884C0.433376 6.13244 0.433376 6.62466 0.73698 6.92823L1.08752 7.27877C1.39724 7.5885 1.90161 7.58131 2.2024 7.26287L3.51152 5.87674V13.0715C3.51152 13.5008 3.85957 13.8489 4.28891 13.8489H12.1778C12.8704 13.8489 13.2172 13.0115 12.7275 12.5218L12.2092 12.0035Z" fill="#C4C4C4"/>
</g>
<defs>
<clipPath id="clip0">
<rect x="0.401917" y="0.374084" width="20.7304" height="16.5844" rx="8.29218" fill="white"/>
</clipPath>
</defs>
</svg>
