<svg width="17" height="17" viewBox="0 0 17 17" fill="none" xmlns="http://www.w3.org/2000/svg">
<path d="M16.6906 5.94974C16.6906 9.09825 14.1382 11.6506 10.9897 11.6506V11.6506C10.3263 11.6506 9.6567 11.8546 9.21591 12.3505L9.14865 12.4262C9.07572 12.5082 8.98623 12.5739 8.88609 12.6189C8.78594 12.6639 8.6774 12.6871 8.56762 12.6871V12.6871C7.90173 12.6871 7.36192 13.2269 7.36192 13.8928V13.9828C7.36192 14.4121 7.01387 14.7602 6.58453 14.7602V14.7602C5.86896 14.7602 5.28887 15.3402 5.28887 16.0558V16.0558C5.28887 16.4852 4.94083 16.8332 4.51148 16.8332H0.883654C0.454307 16.8332 0.106262 16.4852 0.106262 16.0558V13.5274C0.106262 13.3212 0.18818 13.1234 0.333941 12.9777L4.28982 9.02177C5.07784 8.23376 5.28887 7.06413 5.28887 5.94971V5.94971C5.28887 2.80121 7.84121 0.248873 10.9897 0.24884C14.1475 0.248808 16.6906 2.79192 16.6906 5.94974ZM10.9897 4.39493C10.9897 5.25362 11.6858 5.94971 12.5445 5.94971C13.4032 5.94971 14.0993 5.25362 14.0993 4.39493C14.0993 3.53624 13.4032 2.84015 12.5445 2.84015C11.6858 2.84015 10.9897 3.53624 10.9897 4.39493Z" fill="#C4C4C4"/>
</svg>
