<svg width="19" height="17" viewBox="0 0 19 17" fill="none" xmlns="http://www.w3.org/2000/svg">
<g clip-path="url(#clip0)">
<path d="M17.2348 1.26801H1.68692C0.828554 1.26801 0.132141 1.96442 0.132141 2.82279V14.2245C0.132141 15.0829 0.828554 15.7793 1.68692 15.7793H17.2348C18.0931 15.7793 18.7895 15.0829 18.7895 14.2245V2.82279C18.7895 1.96442 18.0931 1.26801 17.2348 1.26801ZM17.2348 14.2245H1.68692V2.82279H17.2348V14.2245ZM6.86953 8.52366C8.01295 8.52366 8.94258 7.59403 8.94258 6.45062C8.94258 5.3072 8.01295 4.37757 6.86953 4.37757C5.72612 4.37757 4.79649 5.3072 4.79649 6.45062C4.79649 7.59403 5.72612 8.52366 6.86953 8.52366ZM3.96727 12.6697H9.7718C10.1734 12.6697 10.4974 12.3912 10.4974 12.0478V11.4259C10.4974 10.3959 9.52238 9.56018 8.32067 9.56018C7.97084 9.56018 7.71495 9.81931 6.86953 9.81931C5.99821 9.81931 5.78766 9.56018 5.4184 9.56018C4.21669 9.56018 3.24171 10.3959 3.24171 11.4259V12.0478C3.24171 12.3912 3.56562 12.6697 3.96727 12.6697ZM11.793 10.5967H15.4208C15.5634 10.5967 15.68 10.4801 15.68 10.3376V9.81931C15.68 9.67679 15.5634 9.56018 15.4208 9.56018H11.793C11.6505 9.56018 11.5339 9.67679 11.5339 9.81931V10.3376C11.5339 10.4801 11.6505 10.5967 11.793 10.5967ZM11.793 8.52366H15.4208C15.5634 8.52366 15.68 8.40705 15.68 8.26453V7.74627C15.68 7.60375 15.5634 7.48714 15.4208 7.48714H11.793C11.6505 7.48714 11.5339 7.60375 11.5339 7.74627V8.26453C11.5339 8.40705 11.6505 8.52366 11.793 8.52366ZM11.793 6.45062H15.4208C15.5634 6.45062 15.68 6.33401 15.68 6.19149V5.67322C15.68 5.5307 15.5634 5.41409 15.4208 5.41409H11.793C11.6505 5.41409 11.5339 5.5307 11.5339 5.67322V6.19149C11.5339 6.33401 11.6505 6.45062 11.793 6.45062Z" fill="#C4C4C4"/>
</g>
<defs>
<clipPath id="clip0">
<rect x="0.132141" y="0.231506" width="18.6574" height="16.5844" rx="8.29218" fill="white"/>
</clipPath>
</defs>
</svg>
