<svg width="21" height="17" viewBox="0 0 21 17" fill="none" xmlns="http://www.w3.org/2000/svg">
<g clip-path="url(#clip0)">
<path d="M20.8626 8.79136V8.2731C20.8626 7.98676 20.6307 7.75484 20.3443 7.75484H11.2748V6.45918H13.6069C14.1793 6.45918 14.6435 5.99502 14.6435 5.42266V1.27657C14.6435 0.704219 14.1793 0.240051 13.6069 0.240051H7.3878C6.81544 0.240051 6.35127 0.704219 6.35127 1.27657V5.42266C6.35127 5.99502 6.81544 6.45918 7.3878 6.45918H9.71997V7.75484H0.650402C0.364063 7.75484 0.132141 7.98676 0.132141 8.2731V8.79136C0.132141 9.0777 0.364063 9.30962 0.650402 9.30962H4.0191V10.6053H2.20519C1.63283 10.6053 1.16866 11.0694 1.16866 11.6418V15.7879C1.16866 16.3602 1.63283 16.8244 2.20519 16.8244H7.3878C7.96015 16.8244 8.42432 16.3602 8.42432 15.7879V11.6418C8.42432 11.0694 7.96015 10.6053 7.3878 10.6053H5.57388V9.30962H15.4208V10.6053H13.6069C13.0346 10.6053 12.5704 11.0694 12.5704 11.6418V15.7879C12.5704 16.3602 13.0346 16.8244 13.6069 16.8244H18.7895C19.3619 16.8244 19.8261 16.3602 19.8261 15.7879V11.6418C19.8261 11.0694 19.3619 10.6053 18.7895 10.6053H16.9756V9.30962H20.3443C20.6307 9.30962 20.8626 9.0777 20.8626 8.79136ZM8.42432 4.38614V2.3131H12.5704V4.38614H8.42432ZM6.35127 14.7514H3.24171V12.6783H6.35127V14.7514ZM17.753 14.7514H14.6435V12.6783H17.753V14.7514Z" fill="#C4C4C4"/>
</g>
<defs>
<clipPath id="clip0">
<rect x="0.132141" y="0.240051" width="20.7304" height="16.5844" rx="8.29218" fill="white"/>
</clipPath>
</defs>
</svg>
