<svg width="22" height="17" viewBox="0 0 22 17" fill="none" xmlns="http://www.w3.org/2000/svg">
<path d="M20.9931 5.63509L18.4147 1.24607C18.1297 0.760201 17.4981 0.595005 17.0057 0.87357L14.7707 2.14007L16.7045 5.43427C16.7757 5.55735 16.7336 5.70959 16.6105 5.78085L16.1635 6.03351C16.0404 6.10477 15.8817 6.06266 15.8105 5.93957L13.8767 2.64861L12.0887 3.66246L12.9924 5.19781C13.0637 5.3209 13.0216 5.47314 12.8985 5.5444L12.4515 5.79705C12.3284 5.86831 12.1697 5.8262 12.0984 5.70312L11.1947 4.17101L9.4067 5.18485L11.3437 8.47905C11.415 8.5989 11.3729 8.75438 11.2498 8.82564L10.8028 9.07829C10.6797 9.14955 10.521 9.10744 10.4497 8.98436L8.51594 5.69016L6.72794 6.70401L7.63166 8.23936C7.70292 8.36244 7.66081 8.51468 7.53773 8.58594L7.09073 8.8386C6.96764 8.90986 6.80892 8.86775 6.73766 8.74466L5.83394 7.20607L4.04594 8.21992L5.9797 11.5141C6.05096 11.634 6.00886 11.7894 5.88577 11.8607L5.43877 12.1134C5.31568 12.1846 5.15696 12.1425 5.0857 12.0194L3.15194 8.73494L0.916941 10.0014C0.424593 10.2832 0.252919 10.9019 0.537962 11.3878L3.11631 15.7801C3.40136 16.2659 4.03299 16.4311 4.52533 16.1526L20.6173 7.02144C21.1097 6.74288 21.2781 6.12096 20.9931 5.63509Z" fill="#C4C4C4"/>
</svg>
