<svg width="21" height="17" viewBox="0 0 21 17" fill="none" xmlns="http://www.w3.org/2000/svg">
<g clip-path="url(#clip0)">
<path d="M10.4973 12.6522H4.27818V7.46955H2.20514V15.7617C2.20514 16.3351 2.66834 16.7983 3.24166 16.7983H11.5338C12.1072 16.7983 12.5703 16.3351 12.5703 15.7617V7.46955H10.4973V12.6522ZM20.6876 4.81994L17.9246 0.673854C17.7303 0.385572 17.4064 0.213898 17.0598 0.213898H3.93483C3.58825 0.213898 3.26434 0.385572 3.07323 0.673854L0.310252 4.81994C-0.149704 5.50988 0.342643 6.43303 1.17186 6.43303H19.826C20.652 6.43303 21.1443 5.50988 20.6876 4.81994ZM16.7164 16.28C16.7164 16.565 16.9496 16.7983 17.2347 16.7983H18.2712C18.5563 16.7983 18.7895 16.565 18.7895 16.28V7.46955H16.7164V16.28Z" fill="#C4C4C4"/>
</g>
<defs>
<clipPath id="clip0">
<rect x="0.132141" y="0.213898" width="20.7304" height="16.5844" rx="8.29218" fill="white"/>
</clipPath>
</defs>
</svg>
