<svg width="15" height="17" viewBox="0 0 15 17" fill="none" xmlns="http://www.w3.org/2000/svg">
<path d="M10.2901 10.0958C9.36043 10.0958 8.91343 10.6141 7.3878 10.6141C5.86216 10.6141 5.4184 10.0958 4.48553 10.0958C2.0821 10.0958 0.132141 12.0458 0.132141 14.4492V15.2784C0.132141 16.1368 0.828554 16.8332 1.68692 16.8332H13.0887C13.947 16.8332 14.6435 16.1368 14.6435 15.2784V14.4492C14.6435 12.0458 12.6935 10.0958 10.2901 10.0958ZM13.0887 15.2784H1.68692V14.4492C1.68692 12.9074 2.94371 11.6506 4.48553 11.6506C4.95845 11.6506 5.72612 12.1688 7.3878 12.1688C9.06243 12.1688 9.81391 11.6506 10.2901 11.6506C11.8319 11.6506 13.0887 12.9074 13.0887 14.4492V15.2784ZM7.3878 9.57754C9.96291 9.57754 12.0521 7.4883 12.0521 4.91319C12.0521 2.33808 9.96291 0.24884 7.3878 0.24884C4.81269 0.24884 2.72345 2.33808 2.72345 4.91319C2.72345 7.4883 4.81269 9.57754 7.3878 9.57754ZM7.3878 1.80362C9.1013 1.80362 10.4974 3.19969 10.4974 4.91319C10.4974 6.62669 9.1013 8.02276 7.3878 8.02276C5.6743 8.02276 4.27823 6.62669 4.27823 4.91319C4.27823 3.19969 5.6743 1.80362 7.3878 1.80362Z" fill="#C4C4C4"/>
</svg>
