<svg width="19" height="20" viewBox="0 0 19 20" fill="none" xmlns="http://www.w3.org/2000/svg">
<path d="M0 1.81345C0 1.3156 0.403583 0.912018 0.901429 0.912018H8.11286C8.6107 0.912018 9.01429 1.3156 9.01429 1.81345V9.02487C9.01429 9.52272 8.6107 9.9263 8.11286 9.9263H0.901429C0.403584 9.9263 0 9.52272 0 9.02487V1.81345Z" fill="#C4C4C4"/>
<path d="M9.91571 1.81345C9.91571 1.3156 10.3193 0.912018 10.8171 0.912018H18.0286C18.5264 0.912018 18.93 1.3156 18.93 1.81345V9.02487C18.93 9.52272 18.5264 9.9263 18.0286 9.9263H10.8171C10.3193 9.9263 9.91571 9.52272 9.91571 9.02487V1.81345Z" fill="#C4C4C4"/>
<path d="M0 11.7292C0 11.2313 0.403583 10.8277 0.901429 10.8277H8.11286C8.6107 10.8277 9.01429 11.2313 9.01429 11.7292V18.9406C9.01429 19.4384 8.6107 19.842 8.11286 19.842H0.901429C0.403584 19.842 0 19.4384 0 18.9406V11.7292Z" fill="#C4C4C4"/>
<path d="M9.91571 11.7292C9.91571 11.2313 10.3193 10.8277 10.8171 10.8277H18.0286C18.5264 10.8277 18.93 11.2313 18.93 11.7292V18.9406C18.93 19.4384 18.5264 19.842 18.0286 19.842H10.8171C10.3193 19.842 9.91571 19.4384 9.91571 18.9406V11.7292Z" fill="#C4C4C4"/>
</svg>
