<svg width="17" height="19" viewBox="0 0 17 19" fill="none" xmlns="http://www.w3.org/2000/svg">
<g clip-path="url(#clip0)">
<path d="M15.6557 14.2306H2.08197V2.98872C2.08197 2.66182 1.857 2.39704 1.57924 2.39704H0.573777C0.296018 2.39704 0.0710449 2.66182 0.0710449 2.98872V15.4139C0.0710449 16.0674 0.521304 16.5973 1.07651 16.5973H15.6557C15.9335 16.5973 16.1585 16.3325 16.1585 16.0056V14.8223C16.1585 14.4954 15.9335 14.2306 15.6557 14.2306ZM14.6503 3.5804H10.9407C10.269 3.5804 9.93245 4.53632 10.4075 5.09546L11.4256 6.29361L9.12022 9.00718L6.81488 6.29398C6.42212 5.83173 5.78554 5.83173 5.39309 6.29398L3.2348 8.83412C3.03842 9.06524 3.03842 9.43985 3.2348 9.67097L3.94554 10.5075C4.14192 10.7386 4.46021 10.7386 4.65659 10.5075L6.10383 8.8038L8.40917 11.517C8.80193 11.9793 9.43852 11.9793 9.83096 11.517L12.8474 7.96694L13.8654 9.16509C14.3405 9.72422 15.1527 9.32817 15.1527 8.53754V4.17207C15.153 3.84517 14.928 3.5804 14.6503 3.5804Z" fill="#C4C4C4"/>
</g>
<defs>
<clipPath id="clip0">
<rect width="16.0874" height="18.9337" fill="white" transform="translate(0.0710449 0.0303345)"/>
</clipPath>
</defs>
</svg>
