<svg width="38" height="38" viewBox="0 0 38 38" fill="none" xmlns="http://www.w3.org/2000/svg">
<g filter="url(#filter0_d)">
<rect x="1" width="30" height="30" rx="10" fill="#D57E3F"/>
</g>
<g clip-path="url(#clip0)">
<path d="M17.8145 21.2344H18.6934C18.8099 21.2344 18.9217 21.1881 19.0041 21.1057C19.0865 21.0232 19.1328 20.9115 19.1328 20.7949V12.8848C19.1328 12.7682 19.0865 12.6564 19.0041 12.574C18.9217 12.4916 18.8099 12.4453 18.6934 12.4453H17.8145C17.6979 12.4453 17.5861 12.4916 17.5037 12.574C17.4213 12.6564 17.375 12.7682 17.375 12.8848V20.7949C17.375 20.9115 17.4213 21.0232 17.5037 21.1057C17.5861 21.1881 17.6979 21.2344 17.8145 21.2344ZM23.8203 8.92969H20.8024L19.5573 6.85327C19.401 6.5929 19.1799 6.37745 18.9157 6.22791C18.6514 6.07838 18.3529 5.99986 18.0492 6H14.3571C14.0535 5.99998 13.7552 6.07856 13.491 6.22809C13.2269 6.37762 13.0059 6.59301 12.8497 6.85327L11.6039 8.92969H8.58594C8.43054 8.92969 8.2815 8.99142 8.17162 9.10131C8.06173 9.21119 8 9.36022 8 9.51563V10.1016C8 10.257 8.06173 10.406 8.17162 10.5159C8.2815 10.6258 8.43054 10.6875 8.58594 10.6875H9.17188V22.9922C9.17188 23.4584 9.35707 23.9055 9.68673 24.2351C10.0164 24.5648 10.4635 24.75 10.9297 24.75H21.4766C21.9428 24.75 22.3899 24.5648 22.7195 24.2351C23.0492 23.9055 23.2344 23.4584 23.2344 22.9922V10.6875H23.8203C23.9757 10.6875 24.1247 10.6258 24.2346 10.5159C24.3445 10.406 24.4062 10.257 24.4062 10.1016V9.51563C24.4062 9.36022 24.3445 9.21119 24.2346 9.10131C24.1247 8.99142 23.9757 8.92969 23.8203 8.92969ZM14.293 7.86438C14.3126 7.83178 14.3403 7.80483 14.3734 7.78615C14.4065 7.76747 14.4439 7.75771 14.4819 7.75781H17.9243C17.9623 7.75777 17.9996 7.76756 18.0327 7.78624C18.0657 7.80492 18.0934 7.83184 18.1129 7.86438L18.7523 8.92969H13.6539L14.293 7.86438ZM21.4766 22.9922H10.9297V10.6875H21.4766V22.9922ZM13.7129 21.2344H14.5918C14.7083 21.2344 14.8201 21.1881 14.9025 21.1057C14.985 21.0232 15.0312 20.9115 15.0312 20.7949V12.8848C15.0312 12.7682 14.985 12.6564 14.9025 12.574C14.8201 12.4916 14.7083 12.4453 14.5918 12.4453H13.7129C13.5963 12.4453 13.4846 12.4916 13.4022 12.574C13.3197 12.6564 13.2734 12.7682 13.2734 12.8848V20.7949C13.2734 20.9115 13.3197 21.0232 13.4022 21.1057C13.4846 21.1881 13.5963 21.2344 13.7129 21.2344Z" fill="white"/>
</g>
<defs>
<filter id="filter0_d" x="0" y="0" width="38" height="38" filterUnits="userSpaceOnUse" color-interpolation-filters="sRGB">
<feFlood flood-opacity="0" result="BackgroundImageFix"/>
<feColorMatrix in="SourceAlpha" type="matrix" values="0 0 0 0 0 0 0 0 0 0 0 0 0 0 0 0 0 0 127 0"/>
<feOffset dx="3" dy="4"/>
<feGaussianBlur stdDeviation="2"/>
<feColorMatrix type="matrix" values="0 0 0 0 0 0 0 0 0 0 0 0 0 0 0 0 0 0 0.75 0"/>
<feBlend mode="normal" in2="BackgroundImageFix" result="effect1_dropShadow"/>
<feBlend mode="normal" in="SourceGraphic" in2="effect1_dropShadow" result="shape"/>
</filter>
<clipPath id="clip0">
<rect width="16.4062" height="18.75" fill="white" transform="translate(8 6)"/>
</clipPath>
</defs>
</svg>
