<svg width="30" height="30" viewBox="0 0 30 30" fill="none" xmlns="http://www.w3.org/2000/svg">
<rect width="30" height="30" rx="10" fill="#D8A04D"/>
<g clip-path="url(#clip0)">
<path d="M15.375 6.29297C10.3579 6.29297 6.29297 10.3579 6.29297 15.375C6.29297 20.3921 10.3579 24.457 15.375 24.457C20.3921 24.457 24.457 20.3921 24.457 15.375C24.457 10.3579 20.3921 6.29297 15.375 6.29297ZM15.375 22.6992C11.3284 22.6992 8.05078 19.4216 8.05078 15.375C8.05078 11.3284 11.3284 8.05078 15.375 8.05078C19.4216 8.05078 22.6992 11.3284 22.6992 15.375C22.6992 19.4216 19.4216 22.6992 15.375 22.6992ZM17.6382 18.876L14.5291 16.6165C14.4155 16.5322 14.3496 16.4004 14.3496 16.2612V10.248C14.3496 10.0063 14.5474 9.80859 14.7891 9.80859H15.9609C16.2026 9.80859 16.4004 10.0063 16.4004 10.248V15.4373L18.8467 17.217C19.0444 17.3599 19.0847 17.6345 18.9419 17.8323L18.2534 18.7808C18.1106 18.9749 17.8359 19.0188 17.6382 18.876Z" fill="white"/>
</g>
<defs>
<clipPath id="clip0">
<rect width="18.75" height="18.75" fill="white" transform="translate(6 6)"/>
</clipPath>
</defs>
</svg>
