<svg width="30" height="30" viewBox="0 0 30 30" fill="none" xmlns="http://www.w3.org/2000/svg">
<rect width="30" height="30" rx="10" fill="#7FACEF"/>
<g clip-path="url(#clip0)">
<path d="M19.2327 18.6288L20.4045 17.4569C20.5876 17.2738 20.9062 17.402 20.9062 17.6657V22.9904C20.9062 23.9608 20.1189 24.7482 19.1484 24.7482H6.25781C5.28735 24.7482 4.5 23.9608 4.5 22.9904V10.0998C4.5 9.1293 5.28735 8.34195 6.25781 8.34195H16.2737C16.5337 8.34195 16.6655 8.65689 16.4824 8.84366L15.3105 10.0155C15.2556 10.0705 15.1824 10.0998 15.1018 10.0998H6.25781V22.9904H19.1484V18.8339C19.1484 18.757 19.1777 18.6837 19.2327 18.6288ZM24.9675 11.2387L15.3508 20.8554L12.0403 21.2216C11.0808 21.3278 10.2642 20.5185 10.3704 19.5517L10.7366 16.2411L20.3533 6.62442C21.1919 5.7858 22.5469 5.7858 23.3818 6.62442L24.9639 8.20645C25.8025 9.04507 25.8025 10.4037 24.9675 11.2387V11.2387ZM21.3494 12.3703L19.2217 10.2426L12.4175 17.0504L12.1501 19.4418L14.5415 19.1745L21.3494 12.3703ZM23.7224 9.45157L22.1404 7.86954C21.9902 7.71939 21.7449 7.71939 21.5984 7.86954L20.4668 9.00113L22.5945 11.1288L23.7261 9.99722C23.8726 9.84341 23.8726 9.60172 23.7224 9.45157V9.45157Z" fill="white"/>
</g>
<defs>
<clipPath id="clip0">
<rect width="21.0938" height="18.75" fill="white" transform="translate(4.5 6)"/>
</clipPath>
</defs>
</svg>
