<svg width="17" height="17" viewBox="0 0 17 17" fill="none" xmlns="http://www.w3.org/2000/svg">
<g clip-path="url(#clip0)">
<path d="M13.8122 10.2313H12.7891C12.6534 10.2313 12.5233 10.2851 12.4273 10.3811C12.3314 10.477 12.2775 10.6071 12.2775 10.7428V14.3238H2.04625V4.0925H6.65031C6.78599 4.0925 6.91611 4.0386 7.01204 3.94267C7.10798 3.84673 7.16188 3.71661 7.16188 3.58094V2.55781C7.16188 2.42214 7.10798 2.29202 7.01204 2.19608C6.91611 2.10015 6.78599 2.04625 6.65031 2.04625H1.53469C1.12766 2.04625 0.737309 2.20794 0.4495 2.49575C0.16169 2.78356 0 3.17391 0 3.58094L0 14.8353C0 15.2423 0.16169 15.6327 0.4495 15.9205C0.737309 16.2083 1.12766 16.37 1.53469 16.37H12.7891C13.1961 16.37 13.5864 16.2083 13.8743 15.9205C14.1621 15.6327 14.3238 15.2423 14.3238 14.8353V10.7428C14.3238 10.6071 14.2699 10.477 14.1739 10.3811C14.078 10.2851 13.9479 10.2313 13.8122 10.2313ZM15.6027 0H11.5102C10.8269 0 10.4854 0.828412 10.9666 1.31088L12.109 2.45326L4.31631 10.2431C4.24477 10.3144 4.18801 10.3991 4.14928 10.4924C4.11055 10.5856 4.09062 10.6856 4.09062 10.7866C4.09062 10.8876 4.11055 10.9876 4.14928 11.0809C4.18801 11.1742 4.24477 11.2589 4.31631 11.3302L5.04113 12.0537C5.11242 12.1252 5.19713 12.182 5.2904 12.2207C5.38367 12.2594 5.48367 12.2794 5.58466 12.2794C5.68566 12.2794 5.78566 12.2594 5.87893 12.2207C5.9722 12.182 6.05691 12.1252 6.1282 12.0537L13.9171 4.2626L15.0591 5.40338C15.5387 5.88297 16.37 5.54726 16.37 4.85984V0.767344C16.37 0.563832 16.2892 0.368655 16.1453 0.22475C16.0013 0.0808449 15.8062 0 15.6027 0V0Z" fill="#C4C4C4"/>
</g>
<defs>
<clipPath id="clip0">
<rect width="16.37" height="16.37" fill="white"/>
</clipPath>
</defs>
</svg>
