<svg width="19" height="20" viewBox="0 0 19 20" fill="none" xmlns="http://www.w3.org/2000/svg">
<g clip-path="url(#clip0)">
<path d="M1.58554 1.96809H16.8409C17.6831 1.96809 18.3664 2.76316 18.3664 3.74313V16.76C18.3664 17.74 17.6831 18.5351 16.8409 18.5351H1.58554C0.743319 18.5351 0.0600071 17.74 0.0600071 16.76V3.74313C0.0600071 2.76316 0.743319 1.96809 1.58554 1.96809ZM1.58554 16.76H16.8409V3.74313H1.58554V16.76ZM11.7558 10.2516C10.6339 10.2516 9.72171 9.19025 9.72171 7.88487C9.72171 6.57948 10.6339 5.51816 11.7558 5.51816C12.8777 5.51816 13.7898 6.57948 13.7898 7.88487C13.7898 9.19025 12.8777 10.2516 11.7558 10.2516ZM14.6034 14.985H8.90809C8.514 14.985 8.19618 14.667 8.19618 14.275V13.565C8.19618 12.389 9.15281 11.4349 10.3319 11.4349C10.6752 11.4349 10.9262 11.7308 11.7558 11.7308C12.6107 11.7308 12.8173 11.4349 13.1796 11.4349C14.3587 11.4349 15.3153 12.389 15.3153 13.565V14.275C15.3153 14.667 14.9975 14.985 14.6034 14.985ZM6.9249 12.6183H3.36533C3.22549 12.6183 3.11107 12.4852 3.11107 12.3224V11.7308C3.11107 11.5681 3.22549 11.4349 3.36533 11.4349H6.9249C7.06474 11.4349 7.17916 11.5681 7.17916 11.7308V12.3224C7.17916 12.4852 7.06474 12.6183 6.9249 12.6183ZM6.9249 10.2516H3.36533C3.22549 10.2516 3.11107 10.1184 3.11107 9.95574V9.36406C3.11107 9.20135 3.22549 9.06822 3.36533 9.06822H6.9249C7.06474 9.06822 7.17916 9.20135 7.17916 9.36406V9.95574C7.17916 10.1184 7.06474 10.2516 6.9249 10.2516ZM6.9249 7.88487H3.36533C3.22549 7.88487 3.11107 7.75174 3.11107 7.58903V6.99735C3.11107 6.83464 3.22549 6.70151 3.36533 6.70151H6.9249C7.06474 6.70151 7.17916 6.83464 7.17916 6.99735V7.58903C7.17916 7.75174 7.06474 7.88487 6.9249 7.88487Z" fill="#C4C4C4"/>
</g>
<defs>
<clipPath id="clip0">
<rect width="18.3064" height="18.9337" fill="white" transform="matrix(-1 0 0 1 18.3664 0.784744)"/>
</clipPath>
</defs>
</svg>
