<svg width="21" height="20" viewBox="0 0 21 20" fill="none" xmlns="http://www.w3.org/2000/svg">
<g clip-path="url(#clip0)">
<path d="M20.1694 10.6319V10.0403C20.1694 9.71336 19.9444 9.44858 19.6667 9.44858H10.8689V7.96939H13.1312C13.6864 7.96939 14.1366 7.43947 14.1366 6.78603V2.05262C14.1366 1.39918 13.6864 0.869263 13.1312 0.869263H7.09837C6.54317 0.869263 6.09291 1.39918 6.09291 2.05262V6.78603C6.09291 7.43947 6.54317 7.96939 7.09837 7.96939H9.36067V9.44858H0.562852C0.285092 9.44858 0.0601196 9.71336 0.0601196 10.0403V10.6319C0.0601196 10.9588 0.285092 11.2236 0.562852 11.2236H3.83061V12.7028H2.07105C1.51584 12.7028 1.06558 13.2327 1.06558 13.8862V18.6196C1.06558 19.273 1.51584 19.8029 2.07105 19.8029H7.09837C7.65358 19.8029 8.10384 19.273 8.10384 18.6196V13.8862C8.10384 13.2327 7.65358 12.7028 7.09837 12.7028H5.33881V11.2236H14.8907V12.7028H13.1312C12.576 12.7028 12.1257 13.2327 12.1257 13.8862V18.6196C12.1257 19.273 12.576 19.8029 13.1312 19.8029H18.1585C18.7137 19.8029 19.1639 19.273 19.1639 18.6196V13.8862C19.1639 13.2327 18.7137 12.7028 18.1585 12.7028H16.3989V11.2236H19.6667C19.9444 11.2236 20.1694 10.9588 20.1694 10.6319ZM8.10384 5.60268V3.23597H12.1257V5.60268H8.10384ZM6.09291 17.4362H3.07651V15.0695H6.09291V17.4362ZM17.153 17.4362H14.1366V15.0695H17.153V17.4362Z" fill="#C4C4C4"/>
</g>
<defs>
<clipPath id="clip0">
<rect width="20.1093" height="18.9337" fill="white" transform="translate(0.0601196 0.869263)"/>
</clipPath>
</defs>
</svg>
