<svg width="30" height="30" viewBox="0 0 30 30" fill="none" xmlns="http://www.w3.org/2000/svg">
<rect width="30" height="30" rx="10" fill="#AA5EB7"/>
<g clip-path="url(#clip0)">
<path d="M24.4981 6.69923C24.4545 6.49667 24.2542 6.2964 24.051 6.25291C22.8719 6 21.9487 6 21.0296 6C17.2491 6 14.982 8.0216 13.2895 10.6875H9.47306C8.87439 10.6881 8.17094 11.1224 7.90251 11.6574L6.09212 15.276C6.03618 15.3994 6.00488 15.5326 6 15.668C6.00008 15.9011 6.09274 16.1246 6.25759 16.2894C6.42245 16.4542 6.64601 16.5468 6.87912 16.5469H10.6808L9.85773 17.3697C9.44152 17.7858 9.38179 18.551 9.85773 19.0268L11.7219 20.8911C12.1304 21.3008 12.8995 21.3728 13.38 20.8911L14.203 20.0682V23.8711C14.2031 24.1042 14.2958 24.3277 14.4606 24.4926C14.6255 24.6574 14.849 24.75 15.0822 24.75C15.2176 24.745 15.3508 24.7137 15.4743 24.6579L19.0898 22.8491C19.6255 22.5819 20.0605 21.8787 20.0605 21.2796V17.455C22.7191 15.7589 24.7493 13.485 24.7493 9.72448C24.7528 8.80151 24.7528 7.87855 24.4981 6.69923ZM20.064 12.1523C19.7743 12.1523 19.4911 12.0663 19.2502 11.9053C19.0094 11.7443 18.8217 11.5155 18.7109 11.2478C18.6001 10.9802 18.5711 10.6856 18.6277 10.4015C18.6842 10.1174 18.8238 9.8564 19.0287 9.65157C19.2335 9.44675 19.4945 9.30727 19.7787 9.25078C20.0628 9.19428 20.3573 9.22331 20.625 9.33419C20.8926 9.44508 21.1214 9.63283 21.2823 9.87371C21.4433 10.1146 21.5292 10.3978 21.5292 10.6875C21.5289 11.076 21.3745 11.4485 21.0998 11.7232C20.825 11.9979 20.4525 12.1522 20.064 12.1523V12.1523Z" fill="white"/>
</g>
<defs>
<clipPath id="clip0">
<rect width="18.75" height="18.75" fill="white" transform="translate(6 6)"/>
</clipPath>
</defs>
</svg>
