<svg width="17" height="20" viewBox="0 0 17 20" fill="none" xmlns="http://www.w3.org/2000/svg">
<g clip-path="url(#clip0)">
<path d="M15.3856 11.7849L14.0471 10.8752C14.1822 10.0172 14.1822 9.13712 14.0471 8.27919L15.3856 7.36948C15.5396 7.26594 15.6087 7.05146 15.5584 6.85177C15.2097 5.53528 14.6158 4.34453 13.8397 3.35347C13.7203 3.20186 13.5255 3.16488 13.3747 3.26842L12.0362 4.17812C11.4737 3.60863 10.8265 3.16858 10.1258 2.88013V1.06442C10.1258 0.857336 10.0032 0.676135 9.83043 0.631759C8.67729 0.328524 7.49587 0.343316 6.39929 0.631759C6.22647 0.676135 6.10393 0.857336 6.10393 1.06442V2.88383C5.40639 3.17597 4.75912 3.61603 4.19355 4.18182L2.85817 3.27212C2.70421 3.16858 2.51254 3.20186 2.39314 3.35717C1.61705 4.34453 1.0232 5.53528 0.674426 6.85546C0.62101 7.05515 0.693278 7.26964 0.84724 7.37318L2.18576 8.28288C2.05065 9.14082 2.05065 10.0209 2.18576 10.8789L0.84724 11.7886C0.693278 11.8921 0.624152 12.1066 0.674426 12.3063C1.0232 13.6228 1.61705 14.8135 2.39314 15.8046C2.51254 15.9562 2.70735 15.9932 2.85817 15.8896L4.19669 14.9799C4.75912 15.5494 5.40639 15.9895 6.10708 16.2779V18.0973C6.10708 18.3044 6.22962 18.4856 6.40243 18.53C7.55557 18.8332 8.73699 18.8184 9.83358 18.53C10.0064 18.4856 10.1289 18.3044 10.1289 18.0973V16.2779C10.8265 15.9858 11.4737 15.5457 12.0393 14.9799L13.3778 15.8896C13.5318 15.9932 13.7235 15.9599 13.8429 15.8046C14.619 14.8172 15.2128 13.6265 15.5616 12.3063C15.6087 12.1029 15.5396 11.8884 15.3856 11.7849ZM8.11486 12.5356C6.72921 12.5356 5.6012 11.208 5.6012 9.57718C5.6012 7.94637 6.72921 6.61879 8.11486 6.61879C9.50052 6.61879 10.6285 7.94637 10.6285 9.57718C10.6285 11.208 9.50052 12.5356 8.11486 12.5356Z" fill="#C4C4C4"/>
</g>
<defs>
<clipPath id="clip0">
<rect width="16.0874" height="18.9337" fill="white" transform="translate(0.0710449 0.110312)"/>
</clipPath>
</defs>
</svg>
